<svg width="24" height="24" viewBox="0 0 24 24" fill="none" xmlns="http://www.w3.org/2000/svg">
<g id="mingcute:down-line" clip-path="url(#clip0_1_362)">
<g id="Group">
<path id="Vector" fill-rule="evenodd" clip-rule="evenodd" d="M12.7077 15.7069C12.5202 15.8943 12.2659 15.9996 12.0007 15.9996C11.7355 15.9996 11.4812 15.8943 11.2937 15.7069L5.63671 10.0499C5.5412 9.95761 5.46502 9.84726 5.41261 9.72526C5.3602 9.60326 5.33261 9.47204 5.33146 9.33926C5.3303 9.20648 5.35561 9.0748 5.40589 8.9519C5.45617 8.829 5.53042 8.71735 5.62431 8.62346C5.71821 8.52957 5.82986 8.45531 5.95276 8.40503C6.07565 8.35475 6.20733 8.32945 6.34011 8.3306C6.47289 8.33176 6.60411 8.35934 6.72611 8.41175C6.84812 8.46416 6.95846 8.54034 7.05071 8.63585L12.0007 13.5859L16.9507 8.63585C17.1393 8.4537 17.3919 8.3529 17.6541 8.35518C17.9163 8.35746 18.1671 8.46263 18.3525 8.64804C18.5379 8.83344 18.6431 9.08426 18.6454 9.34645C18.6477 9.60865 18.5469 9.86125 18.3647 10.0499L12.7077 15.7069Z" fill="black"/>
</g>
</g>
<defs>
<clipPath id="clip0_1_362">
<rect width="24" height="24" fill="white" transform="translate(0.000732422)"/>
</clipPath>
</defs>
</svg>
