<svg width="18" height="18" viewBox="0 0 18 18" fill="none" xmlns="http://www.w3.org/2000/svg">
<g id="tdesign:location">
<path id="Vector" d="M9 2.25002C7.60761 2.25002 6.27226 2.80314 5.28769 3.78771C4.30312 4.77227 3.75 6.10763 3.75 7.50002C3.75 9.64652 5.0865 11.7173 6.5535 13.3215C7.3036 14.1387 8.12207 14.8905 9 15.5685C9.131 15.468 9.28475 15.3455 9.46125 15.201C10.1661 14.6222 10.8295 13.9947 11.4465 13.323C12.9135 11.7173 14.25 9.64727 14.25 7.50002C14.25 6.10763 13.6969 4.77227 12.7123 3.78771C11.7277 2.80314 10.3924 2.25002 9 2.25002ZM9 17.4105L8.57475 17.118L8.5725 17.1165L8.568 17.1128L8.553 17.1023L8.49675 17.0625L8.29425 16.9148C7.26815 16.1436 6.31491 15.28 5.4465 14.3348C3.9135 12.6563 2.25 10.227 2.25 7.49927C2.25 5.70906 2.96116 3.99217 4.22703 2.7263C5.4929 1.46043 7.20979 0.749268 9 0.749268C10.7902 0.749268 12.5071 1.46043 13.773 2.7263C15.0388 3.99217 15.75 5.70906 15.75 7.49927C15.75 10.227 14.0865 12.657 12.5535 14.3333C11.6853 15.2785 10.7323 16.1421 9.7065 16.9133C9.62104 16.9771 9.53478 17.0399 9.44775 17.1015L9.432 17.112L9.4275 17.1158L9.426 17.1165L9 17.4105ZM9 6.00002C8.60218 6.00002 8.22064 6.15805 7.93934 6.43936C7.65804 6.72066 7.5 7.10219 7.5 7.50002C7.5 7.89784 7.65804 8.27937 7.93934 8.56068C8.22064 8.84198 8.60218 9.00002 9 9.00002C9.39782 9.00002 9.77936 8.84198 10.0607 8.56068C10.342 8.27937 10.5 7.89784 10.5 7.50002C10.5 7.10219 10.342 6.72066 10.0607 6.43936C9.77936 6.15805 9.39782 6.00002 9 6.00002ZM6 7.50002C6 6.70437 6.31607 5.94131 6.87868 5.3787C7.44129 4.81609 8.20435 4.50002 9 4.50002C9.79565 4.50002 10.5587 4.81609 11.1213 5.3787C11.6839 5.94131 12 6.70437 12 7.50002C12 8.29567 11.6839 9.05873 11.1213 9.62134C10.5587 10.1839 9.79565 10.5 9 10.5C8.20435 10.5 7.44129 10.1839 6.87868 9.62134C6.31607 9.05873 6 8.29567 6 7.50002Z" fill="#5F5F5F"/>
</g>
</svg>
