<svg width="86" height="81" viewBox="0 0 86 81" fill="none" xmlns="http://www.w3.org/2000/svg">
<g id="favicon 3" clip-path="url(#clip0_198_28430)">
<path id="Vector" d="M46.8193 47.1253C46.7475 47.134 46.6746 47.134 46.6029 47.1253C46.4161 47.0454 46.2488 46.9298 46.062 46.841C45.3525 46.5412 44.66 46.2091 43.9877 45.8462C43.26 45.3933 42.385 45.1713 41.6967 44.665C40.6097 44.2481 39.5721 43.7334 38.5996 43.1283C37.9375 42.7645 37.3123 42.3483 36.7316 41.8847C36.5107 41.6879 36.2706 41.5095 36.0137 41.352C35.6259 41.1491 35.2718 40.8981 34.9616 40.6058C34.7552 40.4014 34.588 40.1527 34.3618 39.9664C33.8444 39.5164 33.4007 39.002 33.0445 38.4385C32.9169 38.2879 32.8325 38.1107 32.7985 37.9236C32.7641 37.6958 32.7016 37.4723 32.6117 37.2574L31.6874 37.95C31.332 38.3117 30.933 38.6364 30.498 38.9181C30.3561 38.9912 30.2402 39.0992 30.1635 39.2292C29.9186 39.6289 29.6321 40.0065 29.3082 40.3571C29.0784 40.5857 28.8866 40.843 28.738 41.1211C28.5635 41.5668 28.3599 42.0027 28.1284 42.4267C28.0441 42.6159 28.0007 42.818 28.0005 43.0219C28.0005 43.4569 28.0005 43.91 28.0005 44.2208C28.0665 44.4174 28.1453 44.61 28.2365 44.7981C28.4135 45.0558 28.4626 45.3666 28.6691 45.6242C28.9279 45.9549 29.2068 46.2723 29.5048 46.5747C29.8468 46.8887 30.2079 47.1853 30.5865 47.4629C31.258 47.9828 32.0016 48.4218 32.7985 48.7685C33.5197 49.1 34.2373 49.4197 34.9518 49.7276C35.5812 50.0031 36.2103 50.2429 36.8299 50.5094C37.1429 50.6499 37.4726 50.7571 37.813 50.8291C38.157 50.9091 38.4619 51.06 38.7961 51.1667C39.3861 51.3533 39.9859 51.5485 40.5759 51.7529C41.1656 51.9571 41.8047 52.1437 42.4045 52.3567L43.9089 52.8898C44.2236 53.0287 44.5531 53.1387 44.8921 53.2184C45.2277 53.3217 45.5561 53.4433 45.8752 53.5824C46.3597 53.7609 46.824 53.981 47.2615 54.2397C47.763 54.4973 48.245 54.746 48.7855 54.9947C48.874 54.5329 48.9036 49.6123 48.7855 48.3599L46.8193 47.1253ZM33.4278 37.5771C33.4278 37.6214 33.5261 37.6571 33.5459 37.7103C33.6439 37.9977 33.769 38.2768 33.9195 38.5452C34.1823 38.9307 34.4925 39.2882 34.8438 39.611C35.4332 40.2358 36.0922 40.8042 36.81 41.3074C37.1149 41.494 37.3704 41.7249 37.6851 41.9026C38.2357 42.2223 38.8059 42.5244 39.3565 42.862C40.3031 43.4401 41.2882 43.9653 42.3062 44.4341C42.5475 44.5214 42.7806 44.6254 43.0043 44.7449C43.6306 45.0904 44.2772 45.4046 44.9412 45.6863C46.0327 46.2015 47.1437 46.6989 48.176 47.3119C48.3039 47.3829 48.3628 47.6138 48.6283 47.4982V47.1431C48.6283 45.9974 48.6283 44.8513 48.6283 43.7056C48.6283 43.5814 48.5694 43.4126 48.6283 43.3416C48.7051 43.2449 48.7537 43.1324 48.7691 43.0142C48.7844 42.8963 48.7665 42.7766 48.7168 42.6665C48.6107 42.2535 48.5775 41.8276 48.6186 41.4052C48.6186 41.0233 48.6186 40.6415 48.6186 40.3215C48.2871 39.926 47.9292 39.5494 47.5466 39.1936C47.1043 38.8295 46.6126 38.5096 46.1505 38.1545C45.5312 37.666 44.8429 37.2663 44.1843 36.7954C43.5256 36.3247 42.8568 35.9072 42.2177 35.3655C41.3817 34.7111 40.6359 33.9687 39.9957 33.1537C39.727 32.7852 39.5093 32.3887 39.3468 31.9725C39.2781 31.7948 39.2289 31.5993 39.16 31.3685C38.8846 31.5818 38.5898 31.6439 38.3438 31.8216C38.0981 31.999 37.744 32.0346 37.4983 32.1945C37.2526 32.3544 36.8592 32.4964 36.5741 32.683C36.0771 33.02 35.601 33.3817 35.1484 33.7667C34.7354 34.1288 34.3451 34.5114 33.9785 34.9124C33.895 35.001 33.8313 35.1037 33.7917 35.2143C33.6601 35.5023 33.5549 35.7992 33.477 36.1027C33.4362 36.4418 33.4197 36.7831 33.4278 37.124C33.4181 37.2928 33.4278 37.4437 33.4278 37.5771ZM48.8447 55.8564L48.4318 55.6077C48.0693 55.4004 47.6876 55.2222 47.2911 55.0746C46.5241 54.7195 45.7376 54.4352 44.961 54.1065C44.6983 53.9792 44.4255 53.8691 44.1449 53.7779C42.9258 53.4582 41.7458 53.0407 40.5658 52.6411C39.927 52.4191 39.2976 52.1437 38.6585 51.9392C37.6753 51.6195 36.6922 51.1756 35.7088 50.8113C34.7256 50.4473 34.0276 50.0209 33.1723 49.6477C32.6608 49.4313 32.1764 49.1663 31.7268 48.8573C31.3122 48.5405 30.8791 48.2438 30.429 47.9692C30.2324 47.8625 29.9767 47.7648 29.8884 47.6049C29.6818 47.2584 29.3082 47.0632 29.0427 46.7167C28.8656 47.1164 28.6986 47.4807 28.5511 47.8625C28.4036 48.2443 28.3446 48.4752 28.2463 48.7507C28.1338 49.062 28.0612 49.3838 28.03 49.7098C28.03 50.0385 27.9317 50.3671 27.9219 50.696C27.9435 50.9195 27.9796 51.142 28.03 51.3619C28.0794 51.6987 28.1583 52.0315 28.266 52.3567C28.4363 52.8316 28.6365 53.2973 28.8656 53.7512C28.8656 53.7957 28.8656 53.8578 28.9346 53.8846C29.4322 54.3888 29.9747 54.855 30.5569 55.279C30.842 55.4478 31.0877 55.6965 31.3828 55.8386C32.2755 56.2938 33.2056 56.6858 34.1653 57.0111C34.4573 57.0705 34.741 57.1599 35.0107 57.2776C35.286 57.4463 35.6303 57.2776 35.876 57.4817C36.3873 57.4817 36.8592 57.7661 37.3509 57.7037C37.5673 57.9348 37.8917 57.7037 38.167 57.8992C38.4424 58.0947 38.7274 57.9702 39.0028 58.0323C39.2873 58.0609 39.5698 58.1054 39.8482 58.1657C40.1138 58.2457 40.3989 58.1657 40.5857 58.2635C40.7725 58.361 41.0871 58.3167 41.3328 58.3523C41.4116 58.3523 41.5294 58.3523 41.5688 58.3523C41.7263 58.5297 41.9424 58.4233 42.1292 58.4587C42.316 58.4944 42.493 58.5386 42.6798 58.5654C43.1478 58.5801 43.6141 58.6215 44.0759 58.6896C44.4004 58.7609 44.7446 58.6896 45.0593 58.7963C45.6197 58.965 46.2293 58.9207 46.7799 59.1071C47.4648 59.1052 48.14 59.2546 48.7462 59.5424C48.7462 58.5921 48.7462 57.6683 48.7462 56.7445C48.7562 56.4958 48.8054 56.2382 48.8447 55.8564ZM48.3432 60.2974C48.0188 60.1996 47.7829 60.1553 47.5567 60.0665C47.2663 59.9923 46.9706 59.936 46.6718 59.8977C46.0522 59.7468 45.4232 59.649 44.7938 59.5245C44.4984 59.4409 44.1887 59.4048 43.8793 59.4181C43.6828 59.2137 43.427 59.3293 43.2008 59.3204C42.9749 59.3115 42.7781 59.1784 42.5226 59.187C42.1898 59.204 41.8564 59.165 41.5395 59.0717C41.0774 58.9207 40.5561 58.9118 40.1138 58.7698C39.8385 58.6896 39.5534 58.7698 39.2485 58.672C38.972 58.6073 38.6883 58.5717 38.403 58.5654C37.9113 58.4765 37.4196 58.361 36.9773 58.2367C36.5347 58.1123 35.8663 57.9259 35.3059 57.7925C34.7455 57.6594 34.1848 57.5174 33.6244 57.384C33.475 57.3669 33.3273 57.3402 33.1821 57.304C32.72 57.1177 32.2579 56.9311 31.8153 56.7267C31.2887 56.4995 30.7881 56.2259 30.3209 55.9096C29.7985 55.6174 29.3657 55.2112 29.0625 54.7284C29.0625 55.3768 29.0625 55.8831 29.0625 56.3892C29.0762 56.6887 29.1222 56.9862 29.2001 57.2776C29.3241 57.7383 29.4785 58.1922 29.6623 58.6364C29.7966 59.0269 30.0099 59.3912 30.2913 59.7111C30.4784 59.8872 30.6524 60.0741 30.8126 60.2706C31.2005 60.8223 31.7048 61.299 32.2973 61.674C32.4802 61.7904 32.6742 61.8913 32.8772 61.9762C33.4376 62.2425 34.0081 62.4912 34.5684 62.7488C35.0895 62.6867 35.5516 62.971 36.0433 62.9796C36.3742 63.0022 36.7028 63.0467 37.0264 63.113C37.4143 63.1987 37.8085 63.2582 38.2061 63.2907C38.7249 63.3534 39.2507 63.3534 39.7695 63.2907C40.2612 63.1752 40.7529 63.2194 41.2443 63.122C41.736 63.0242 42.3456 62.9796 42.8864 62.8732C43.427 62.7666 43.6925 62.6956 44.086 62.5889C44.8804 62.3554 45.6504 62.058 46.3865 61.7008C47.0884 61.3024 47.7438 60.8412 48.3432 60.3241V60.2974ZM39.8186 31.8748C39.9859 32.1945 40.0842 32.4878 40.2414 32.7186C40.4756 33.0792 40.7526 33.4157 41.0673 33.7224C41.9058 34.5243 42.8203 35.2586 43.8006 35.9161C44.0564 36.0849 44.2923 36.2891 44.5676 36.4578C44.9904 36.7244 45.4427 36.9552 45.8261 37.2485C46.6905 37.8269 47.5148 38.4527 48.2941 39.1225C48.3765 39.1888 48.4653 39.2481 48.5594 39.3002C48.5594 39.2381 48.6283 39.2114 48.6283 39.1757C48.6283 38.2344 48.6283 37.2928 48.6283 36.3514C48.6158 36.2663 48.5926 36.1829 48.5594 36.1027C48.4843 35.8105 48.4843 35.5065 48.5594 35.2143C48.6334 34.904 48.6334 34.5833 48.5594 34.273C48.4664 33.9616 48.4664 33.6338 48.5594 33.3224C48.661 33.057 48.6814 32.7716 48.6186 32.4964C48.5594 32.2923 48.5594 32.0878 48.5102 31.9015C48.2743 31.7681 48.0679 31.6172 47.832 31.5105C47.2613 31.1504 46.7132 30.7618 46.1899 30.3472C46.0229 29.974 45.5999 29.7785 45.4525 29.3699C45.3103 29.1087 45.1283 28.8665 44.9116 28.6506C44.6723 28.2677 44.5093 27.8499 44.43 27.416C44.44 27.112 44.3797 26.8095 44.2529 26.5278L43.8598 26.7321C42.9984 27.1424 42.1962 27.6466 41.4705 28.2331C41.3624 28.3308 41.1656 28.3665 41.1067 28.4729C40.969 28.7483 40.6839 28.8904 40.5069 29.1212C40.1157 29.5434 39.8787 30.0647 39.8287 30.6134L39.8186 31.8748ZM48.3826 19.0402C48.2547 19.1734 48.2056 19.2623 48.1171 19.2978C47.6519 19.5825 47.223 19.9132 46.8388 20.2837C46.4903 20.6166 46.162 20.9665 45.8557 21.3318C45.6879 21.4727 45.5569 21.6457 45.4723 21.838C45.166 22.4722 44.9002 23.1217 44.6757 23.7832C44.6101 24.2203 44.5149 24.6534 44.3906 25.08C44.3906 25.1866 44.3906 25.3198 44.4397 25.4353C44.4691 25.5372 44.4886 25.6412 44.4989 25.7462C44.459 26.2153 44.5397 26.6865 44.7349 27.123C44.9217 27.5491 45.0395 28.0111 45.2364 28.4108C45.3681 28.6385 45.5262 28.8526 45.7082 29.0502C45.9978 29.5036 46.3588 29.9163 46.7799 30.2759L47.3305 30.6669C47.419 30.7379 47.4975 30.8268 47.586 30.8889C47.6745 30.951 47.763 30.9599 47.832 31.0131C47.9007 31.0666 47.999 31.173 48.0875 31.2442C48.176 31.3153 48.2154 31.4041 48.353 31.4217L48.3826 19.0402ZM48.3826 11.9345C48.2251 12.2543 48.0087 12.4142 47.9794 12.6718C47.9747 12.8085 47.9448 12.9436 47.8909 13.0714C47.6312 13.7279 47.4308 14.4021 47.2911 15.0877C47.1535 15.6561 47.1141 16.2423 46.9667 16.8108C46.8684 17.175 46.9667 17.5746 46.8586 17.9655C46.8089 18.6012 46.8089 19.2393 46.8586 19.8751C47.1929 19.7152 47.3501 19.4399 47.655 19.2889C47.9375 19.1002 48.1919 18.8792 48.4119 18.6316L48.3826 11.9345Z" fill="#113627"/>
<path id="Vector_2" d="M48.3096 63.2858H48.9094C48.9142 63.2237 48.9142 63.1613 48.9094 63.0992C48.9094 62.9393 48.9094 62.7884 48.9094 62.6374C48.9094 62.1133 48.9094 61.5894 48.9094 61.0653C48.9094 60.5411 48.9094 60.0172 48.9094 59.4931C48.9094 59.431 48.9094 58.8448 48.9094 58.8448H48.3096C48.3043 58.9097 48.3043 58.975 48.3096 59.0403C48.3096 59.1912 48.3096 59.3422 48.3096 59.4931V62.6374C48.3096 62.6995 48.3096 63.2858 48.3096 63.2858Z" fill="#113627"/>
</g>
<defs>
<clipPath id="clip0_198_28430">
<rect width="84.3247" height="79.6687" fill="white" transform="translate(0.837891 0.665649)"/>
</clipPath>
</defs>
</svg>
