<svg width="89" height="107" viewBox="0 0 89 107" fill="none" xmlns="http://www.w3.org/2000/svg">
<g id="favicon 2" clip-path="url(#clip0_68_255)">
<path id="Vector" d="M48.7907 62.3159C48.716 62.3275 48.6401 62.3275 48.5653 62.3159C48.3708 62.2088 48.1967 62.054 48.0021 61.9349C47.2633 61.5332 46.5422 61.0882 45.8421 60.6019C45.0844 59.995 44.1731 59.6976 43.4564 59.0191C42.3245 58.4604 41.244 57.7707 40.2313 56.9599C39.5419 56.4725 38.8909 55.9148 38.2861 55.2936C38.0562 55.0298 37.8061 54.7907 37.5386 54.5796C37.1347 54.3078 36.7661 53.9714 36.443 53.5798C36.2282 53.3059 36.054 52.9727 35.8185 52.723C35.2797 52.12 34.8177 51.4307 34.4467 50.6757C34.3138 50.4737 34.226 50.2363 34.1905 49.9856C34.1548 49.6804 34.0896 49.3809 33.996 49.0929L33.0336 50.0211C32.6634 50.5057 32.248 50.9408 31.795 51.3183C31.6472 51.4163 31.5266 51.561 31.4466 51.7351C31.1916 52.2707 30.8933 52.7767 30.556 53.2466C30.3167 53.5528 30.117 53.8977 29.9622 54.2702C29.7805 54.8676 29.5686 55.4516 29.3274 56.0198C29.2397 56.2733 29.1945 56.5441 29.1943 56.8173C29.1943 57.4002 29.1943 58.0074 29.1943 58.4239C29.2631 58.6873 29.3451 58.9454 29.44 59.1975C29.6243 59.5427 29.6755 59.9592 29.8905 60.3044C30.16 60.7476 30.4505 61.1729 30.7607 61.5781C31.1169 61.9988 31.4929 62.3964 31.8871 62.7682C32.5864 63.465 33.3607 64.0532 34.1905 64.5178C34.9415 64.962 35.6888 65.3904 36.4328 65.8031C37.0882 66.1721 37.7433 66.4935 38.3885 66.8506C38.7144 67.0388 39.0578 67.1825 39.4123 67.279C39.7705 67.3861 40.088 67.5884 40.436 67.7313C41.0504 67.9814 41.6749 68.243 42.2893 68.5169C42.9034 68.7905 43.5689 69.0405 44.1935 69.326L45.7601 70.0403C46.0878 70.2264 46.4309 70.3739 46.7839 70.4807C47.1334 70.619 47.4753 70.782 47.8076 70.9684C48.3121 71.2076 48.7956 71.5026 49.2512 71.8492C49.7734 72.1944 50.2753 72.5276 50.8382 72.8609C50.9304 72.2421 50.9612 65.6486 50.8382 63.9703L48.7907 62.3159ZM34.8459 49.5214C34.8459 49.5807 34.9482 49.6285 34.9689 49.6998C35.0709 50.085 35.2012 50.459 35.3579 50.8186C35.6315 51.3352 35.9545 51.8142 36.3203 52.2468C36.9341 53.084 37.6203 53.8457 38.3678 54.5199C38.6854 54.77 38.9514 55.0794 39.2791 55.3174C39.8525 55.7459 40.4462 56.1508 41.0196 56.6031C42.0052 57.3778 43.031 58.0815 44.0911 58.7098C44.3424 58.8267 44.5851 58.9661 44.818 59.1262C45.4702 59.5891 46.1436 60.0101 46.835 60.3877C47.9716 61.0781 49.1285 61.7446 50.2035 62.566C50.3366 62.6611 50.398 62.9705 50.6745 62.8157V62.3398C50.6745 60.8045 50.6745 59.2688 50.6745 57.7335C50.6745 57.567 50.6132 57.3409 50.6745 57.2457C50.7545 57.1161 50.8051 56.9655 50.821 56.8071C50.837 56.6491 50.8184 56.4886 50.7667 56.3411C50.6562 55.7877 50.6216 55.217 50.6643 54.6509C50.6643 54.1393 50.6643 53.6276 50.6643 53.1988C50.3192 52.6689 49.9464 52.1643 49.5481 51.6874C49.0875 51.1996 48.5755 50.7708 48.0943 50.295C47.4494 49.6404 46.7327 49.1049 46.0468 48.4738C45.3609 47.8431 44.6645 47.2837 43.999 46.5578C43.1284 45.681 42.3518 44.6861 41.6851 43.5939C41.4054 43.1002 41.1786 42.5689 41.0094 42.0112C40.9379 41.7731 40.8867 41.5111 40.8149 41.2018C40.5282 41.4876 40.2211 41.5708 39.965 41.8089C39.7091 42.0467 39.3404 42.0944 39.0846 42.3087C38.8287 42.5229 38.419 42.7132 38.1222 42.9632C37.6046 43.4148 37.1089 43.8995 36.6375 44.4153C36.2075 44.9007 35.801 45.4134 35.4193 45.9507C35.3323 46.0693 35.266 46.207 35.2247 46.3552C35.0878 46.7411 34.9782 47.139 34.8971 47.5457C34.8546 48.0001 34.8375 48.4573 34.8459 48.9142C34.8357 49.1403 34.8459 49.3426 34.8459 49.5214ZM50.8998 74.0156L50.4698 73.6823C50.0924 73.4045 49.6949 73.1657 49.2821 72.968C48.4833 72.4922 47.6643 72.1112 46.8557 71.6708C46.5821 71.5001 46.298 71.3526 46.0058 71.2304C44.7363 70.802 43.5076 70.2426 42.2788 69.707C41.6136 69.4096 40.9582 69.0405 40.2927 68.7666C39.2689 68.3382 38.2451 67.7433 37.2211 67.2552C36.1973 66.7674 35.4704 66.196 34.5798 65.696C34.0472 65.4059 33.5427 65.0509 33.0746 64.6368C32.6428 64.2123 32.1918 63.8147 31.7231 63.4467C31.5184 63.3038 31.2521 63.1728 31.1602 62.9586C30.9451 62.4943 30.556 62.2327 30.2795 61.7685C30.0952 62.304 29.9212 62.7921 29.7677 63.3038C29.6141 63.8154 29.5527 64.1248 29.4503 64.4939C29.3331 64.9111 29.2575 65.3423 29.225 65.7792C29.225 66.2196 29.1226 66.6599 29.1124 67.1006C29.1349 67.4002 29.1725 67.6983 29.225 67.993C29.2764 68.4442 29.3586 68.8902 29.4707 69.326C29.6481 69.9623 29.8566 70.5864 30.0952 71.1946C30.0952 71.2543 30.0952 71.3375 30.167 71.3733C30.6851 72.049 31.2501 72.6737 31.8563 73.2419C32.1532 73.4681 32.409 73.8013 32.7164 73.9917C33.6459 74.6017 34.6144 75.127 35.6138 75.5628C35.9179 75.6425 36.2133 75.7623 36.4942 75.92C36.7809 76.1461 37.1394 75.92 37.3953 76.1935C37.9276 76.1935 38.419 76.5745 38.931 76.491C39.1564 76.8007 39.4942 76.491 39.7809 76.7529C40.0676 77.0149 40.3645 76.8481 40.6512 76.9313C40.9475 76.9696 41.2417 77.0293 41.5316 77.1101C41.8081 77.2172 42.105 77.1101 42.2995 77.2411C42.494 77.3717 42.8217 77.3124 43.0776 77.3601C43.1596 77.3601 43.2823 77.3601 43.3232 77.3601C43.4872 77.5979 43.7123 77.4553 43.9068 77.5027C44.1013 77.5504 44.2857 77.6098 44.4802 77.6456C44.9675 77.6653 45.4531 77.7208 45.934 77.8121C46.2718 77.9076 46.6303 77.8121 46.958 77.955C47.5416 78.1812 48.1763 78.1218 48.7497 78.3715C49.4629 78.369 50.166 78.5692 50.7972 78.9548C50.7972 77.6814 50.7972 76.4436 50.7972 75.2057C50.8077 74.8724 50.8588 74.5272 50.8998 74.0156ZM50.3776 79.9665C50.0398 79.8355 49.7941 79.7762 49.5586 79.6571C49.2562 79.5577 48.9483 79.4822 48.6372 79.431C47.992 79.2287 47.3369 79.0977 46.6815 78.9309C46.3739 78.8189 46.0514 78.7704 45.7293 78.7883C45.5246 78.5144 45.2583 78.6693 45.0227 78.6573C44.7875 78.6454 44.5825 78.467 44.3165 78.4786C43.9699 78.5014 43.6227 78.4491 43.2927 78.3241C42.8115 78.1218 42.2687 78.1099 41.8081 77.9195C41.5214 77.8121 41.2246 77.9195 40.907 77.7885C40.6192 77.7018 40.3238 77.654 40.0266 77.6456C39.5146 77.5266 39.0026 77.3717 38.542 77.2052C38.0812 77.0384 37.3851 76.7888 36.8015 76.61C36.218 76.4316 35.6341 76.2413 35.0506 76.0625C34.895 76.0397 34.7412 76.0039 34.59 75.9554C34.1088 75.7057 33.6276 75.4557 33.1668 75.1818C32.6184 74.8773 32.0971 74.5107 31.6106 74.0868C31.0666 73.6953 30.6159 73.151 30.3002 72.5041C30.3002 73.3729 30.3002 74.0514 30.3002 74.7295C30.3144 75.1309 30.3624 75.5295 30.4435 75.92C30.5726 76.5373 30.7334 77.1455 30.9247 77.7408C31.0646 78.264 31.2867 78.7522 31.5798 79.1809C31.7746 79.4169 31.9557 79.6673 32.1226 79.9307C32.5265 80.6699 33.0516 81.3087 33.6686 81.8112C33.859 81.9671 34.0611 82.1023 34.2725 82.2161C34.8561 82.5729 35.4501 82.9062 36.0336 83.2514C36.5762 83.1681 37.0574 83.5492 37.5694 83.5607C37.914 83.5909 38.2562 83.6506 38.5932 83.7395C38.997 83.8543 39.4076 83.934 39.8216 83.9776C40.3619 84.0615 40.9094 84.0615 41.4496 83.9776C41.9616 83.8227 42.4737 83.8821 42.9854 83.7514C43.4974 83.6204 44.1321 83.5607 44.6953 83.4182C45.2582 83.2752 45.5348 83.1801 45.9444 83.0372C46.7717 82.7243 47.5736 82.3257 48.34 81.847C49.071 81.3132 49.7534 80.6952 50.3776 80.0023V79.9665ZM41.5008 41.8802C41.6749 42.3087 41.7773 42.7016 41.941 43.011C42.1849 43.4942 42.4734 43.9451 42.801 44.356C43.6742 45.4306 44.6264 46.4146 45.6473 47.2956C45.9136 47.5218 46.1593 47.7954 46.446 48.0215C46.8862 48.3787 47.3572 48.688 47.7564 49.081C48.6566 49.856 49.515 50.6946 50.3265 51.5922C50.4122 51.6811 50.5047 51.7604 50.6027 51.8303C50.6027 51.7471 50.6745 51.7113 50.6745 51.6635C50.6745 50.4021 50.6745 49.1403 50.6745 47.8789C50.6614 47.7648 50.6373 47.6531 50.6027 47.5457C50.5245 47.1541 50.5245 46.7468 50.6027 46.3552C50.6797 45.9394 50.6797 45.5096 50.6027 45.0938C50.5059 44.6766 50.5059 44.2373 50.6027 43.8201C50.7085 43.4644 50.7298 43.0819 50.6643 42.7132C50.6027 42.4396 50.6027 42.1657 50.5515 41.916C50.3058 41.7373 50.091 41.535 49.8453 41.3921C49.2509 40.9096 48.6802 40.3888 48.1353 39.8333C47.9614 39.3332 47.5209 39.0712 47.3674 38.5237C47.2194 38.1736 47.0298 37.8491 46.8042 37.5598C46.555 37.0467 46.3852 36.4869 46.3027 35.9054C46.3131 35.498 46.2503 35.0927 46.1183 34.7152L45.7089 34.989C44.8119 35.5388 43.9766 36.2144 43.2209 37.0004C43.1084 37.1313 42.9034 37.1791 42.842 37.3217C42.6987 37.6908 42.4018 37.8811 42.2175 38.1905C41.8101 38.7562 41.5633 39.4547 41.5112 40.19L41.5008 41.8802ZM50.4186 24.6819C50.2855 24.8604 50.2343 24.9794 50.1421 25.027C49.6577 25.4086 49.2111 25.8517 48.811 26.3482C48.4482 26.7943 48.1062 27.2631 47.7873 27.7526C47.6125 27.9415 47.4762 28.1732 47.3881 28.431C47.0691 29.2808 46.7923 30.151 46.5585 31.0375C46.4902 31.6232 46.391 32.2036 46.2617 32.7752C46.2617 32.918 46.2617 33.0966 46.3128 33.2513C46.3434 33.3879 46.3637 33.5273 46.3745 33.6679C46.3329 34.2966 46.4169 34.9279 46.6202 35.5128C46.8147 36.0838 46.9374 36.7029 47.1424 37.2384C47.2796 37.5436 47.4442 37.8305 47.6337 38.0953C47.9353 38.7028 48.3112 39.2559 48.7497 39.7377L49.3231 40.2617C49.4152 40.3568 49.4969 40.4759 49.5891 40.5591C49.6813 40.6423 49.7734 40.6543 49.8453 40.7256C49.9168 40.7972 50.0191 40.9398 50.1113 41.0353C50.2035 41.1305 50.2445 41.2495 50.3878 41.2731L50.4186 24.6819ZM50.4186 15.1603C50.2547 15.5888 50.0293 15.803 49.9988 16.1482C49.9938 16.3314 49.9627 16.5124 49.9066 16.6838C49.6362 17.5634 49.4274 18.4669 49.2821 19.3855C49.1387 20.1472 49.0977 20.9328 48.9442 21.6945C48.8419 22.1825 48.9442 22.718 48.8317 23.2417C48.7799 24.0936 48.7799 24.9487 48.8317 25.8007C49.1797 25.5864 49.3434 25.2175 49.6609 25.0151C49.9552 24.7622 50.22 24.4662 50.4492 24.1344L50.4186 15.1603Z" fill="white"/>
<path id="Vector_2" d="M50.3422 83.9709H50.966C50.9709 83.8877 50.9709 83.8041 50.966 83.7209C50.966 83.5067 50.966 83.3044 50.966 83.1021C50.966 82.3998 50.966 81.6978 50.966 80.9955C50.966 80.2931 50.966 79.5911 50.966 78.8888C50.966 78.8056 50.966 78.02 50.966 78.02H50.3422C50.3367 78.1071 50.3367 78.1945 50.3422 78.282C50.3422 78.4842 50.3422 78.6865 50.3422 78.8888V83.1021C50.3422 83.1854 50.3422 83.9709 50.3422 83.9709Z" fill="white"/>
</g>
<defs>
<clipPath id="clip0_68_255">
<rect width="87.8092" height="106.756" fill="white" transform="translate(0.909121 0.0600004)"/>
</clipPath>
</defs>
</svg>
