<svg width="20" height="20" viewBox="0 0 20 20" fill="none" xmlns="http://www.w3.org/2000/svg">
<g id="material-symbols:mail-outline-rounded">
<path id="Vector" d="M3.33341 16.6666C2.87508 16.6666 2.48286 16.5036 2.15675 16.1775C1.83064 15.8514 1.6673 15.4589 1.66675 15V4.99998C1.66675 4.54165 1.83008 4.14942 2.15675 3.82331C2.48341 3.4972 2.87564 3.33387 3.33341 3.33331H16.6667C17.1251 3.33331 17.5176 3.49665 17.8442 3.82331C18.1709 4.14998 18.334 4.5422 18.3334 4.99998V15C18.3334 15.4583 18.1704 15.8508 17.8442 16.1775C17.5181 16.5041 17.1256 16.6672 16.6667 16.6666H3.33341ZM16.6667 6.66665L10.4376 10.5625C10.3681 10.6041 10.2954 10.6355 10.2192 10.6566C10.1431 10.6778 10.0701 10.688 10.0001 10.6875C9.93008 10.6869 9.8573 10.6766 9.78175 10.6566C9.70619 10.6366 9.63314 10.6053 9.56258 10.5625L3.33341 6.66665V15H16.6667V6.66665ZM10.0001 9.16665L16.6667 4.99998H3.33341L10.0001 9.16665ZM3.33341 6.87498V5.64581V5.66665V5.65665V6.87498Z" fill="#113627"/>
</g>
</svg>
