<svg width="15" height="16" viewBox="0 0 15 16" fill="none" xmlns="http://www.w3.org/2000/svg">
<path id="Vector" d="M0 0V15.7689H6.875V13.3429H8.125V15.7689H15V0H0ZM1.25 1.21299H13.75V14.5559H9.375V12.1299H5.625V14.5559H1.25V1.21299ZM2.5 2.42598V3.63897H5V2.42598H2.5ZM6.25 2.42598V3.63897H8.75V2.42598H6.25ZM10 2.42598V3.63897H12.5V2.42598H10ZM2.5 4.85196V6.06495H5V4.85196H2.5ZM6.25 4.85196V6.06495H8.75V4.85196H6.25ZM10 4.85196V6.06495H12.5V4.85196H10ZM2.5 7.27794V8.49093H5V7.27794H2.5ZM6.25 7.27794V8.49093H8.75V7.27794H6.25ZM10 7.27794V8.49093H12.5V7.27794H10ZM2.5 9.70392V10.9169H5V9.70392H2.5ZM6.25 9.70392V10.9169H8.75V9.70392H6.25ZM10 9.70392V10.9169H12.5V9.70392H10ZM2.5 12.1299V13.3429H5V12.1299H2.5ZM10 12.1299V13.3429H12.5V12.1299H10Z" fill="#717680"/>
</svg>
