<svg width="22" height="21" viewBox="0 0 22 21" fill="none" xmlns="http://www.w3.org/2000/svg">
<g id="mingcute:time-fill">
<g id="Group">
<path id="Vector" d="M11.332 1.75C16.1647 1.75 20.082 5.66738 20.082 10.5C20.082 15.3326 16.1647 19.25 11.332 19.25C6.49941 19.25 2.58203 15.3326 2.58203 10.5C2.58203 5.66738 6.49941 1.75 11.332 1.75ZM11.332 5.25C11.1 5.25 10.8774 5.34219 10.7133 5.50628C10.5492 5.67038 10.457 5.89294 10.457 6.125V10.5C10.4571 10.732 10.5493 10.9546 10.7134 11.1186L13.3384 13.7436C13.5034 13.903 13.7245 13.9912 13.9539 13.9892C14.1833 13.9872 14.4028 13.8952 14.565 13.733C14.7272 13.5707 14.8193 13.3513 14.8212 13.1219C14.8232 12.8924 14.735 12.6714 14.5757 12.5064L12.207 10.1378V6.125C12.207 5.89294 12.1148 5.67038 11.9507 5.50628C11.7867 5.34219 11.5641 5.25 11.332 5.25Z" fill="#717680"/>
</g>
</g>
</svg>
