<svg width="13" height="18" viewBox="0 0 13 18" fill="none" xmlns="http://www.w3.org/2000/svg">
<path id="Vector" d="M6.41667 8.4505C5.80888 8.4505 5.22598 8.21621 4.79621 7.79916C4.36644 7.38211 4.125 6.81648 4.125 6.22668C4.125 5.63689 4.36644 5.07125 4.79621 4.65421C5.22598 4.23716 5.80888 4.00287 6.41667 4.00287C7.02445 4.00287 7.60735 4.23716 8.03712 4.65421C8.46689 5.07125 8.70833 5.63689 8.70833 6.22668C8.70833 6.51872 8.64906 6.8079 8.53389 7.0777C8.41872 7.34751 8.24992 7.59266 8.03712 7.79916C7.82432 8.00566 7.57169 8.16946 7.29365 8.28122C7.01561 8.39298 6.71761 8.4505 6.41667 8.4505ZM6.41667 0C4.71486 0 3.08276 0.656024 1.8794 1.82375C0.67604 2.99148 0 4.57526 0 6.22668C0 10.8967 6.41667 17.7905 6.41667 17.7905C6.41667 17.7905 12.8333 10.8967 12.8333 6.22668C12.8333 4.57526 12.1573 2.99148 10.9539 1.82375C9.75058 0.656024 8.11847 0 6.41667 0Z" fill="#717680"/>
</svg>
