<svg width="19" height="19" viewBox="0 0 19 19" fill="none" xmlns="http://www.w3.org/2000/svg">
<g id="solar:phone-linear">
<path id="Vector" d="M12.7937 10.8456L13.1182 10.5232L12.3647 9.76616L12.0416 10.0885L12.7937 10.8456ZM14.2061 10.388L15.5659 11.1273L16.0746 10.1895L14.7156 9.45095L14.2061 10.388ZM15.827 12.5959L14.8166 13.6013L15.5687 14.3577L16.5791 13.353L15.827 12.5959ZM14.2004 13.9244C13.1687 14.0212 10.5004 13.9351 7.61016 11.0619L6.85736 11.8182C10.0109 14.954 13.0129 15.1077 14.3 14.9874L14.2004 13.9244ZM7.61016 11.0619C4.8558 8.32245 4.39899 6.0192 4.34207 5.01948L3.27618 5.07997C3.34734 6.33797 3.91301 8.89097 6.85736 11.8182L7.61016 11.0619ZM8.58853 6.66456L8.79274 6.46106L8.04136 5.7047L7.83715 5.90748L8.58853 6.66456ZM8.95497 3.87462L8.05843 2.67639L7.20388 3.31677L8.10041 4.51429L8.95497 3.87462ZM5.0408 2.41525L3.92368 3.52525L4.67649 4.28233L5.7929 3.17233L5.0408 2.41525ZM8.21284 6.28602C7.83572 5.90748 7.83572 5.90748 7.83572 5.90891H7.8343L7.83216 5.91175C7.79835 5.94585 7.76807 5.98327 7.7418 6.02347C7.70338 6.08039 7.6614 6.1551 7.62582 6.24973C7.53921 6.49402 7.51763 6.75664 7.5632 7.01179C7.65855 7.62727 8.08263 8.44056 9.16843 9.52068L9.92124 8.7636C8.90445 7.75322 8.66253 7.13845 8.6177 6.84814C8.59636 6.7101 8.61841 6.64179 8.62482 6.62614C8.62909 6.61665 8.62909 6.61523 8.62482 6.62187C8.61847 6.63169 8.61134 6.64097 8.60347 6.64962L8.59636 6.65673L8.58924 6.66314L8.21284 6.28602ZM9.16843 9.52068C10.255 10.6008 11.0725 11.022 11.6887 11.1159C12.0039 11.1643 12.2579 11.1259 12.4508 11.054C12.5588 11.0145 12.6597 10.9578 12.7496 10.8861L12.7852 10.8541L12.7902 10.8498L12.7923 10.8477L12.793 10.8463C12.793 10.8463 12.7937 10.8456 12.4173 10.467C12.0402 10.0885 12.0423 10.0878 12.0423 10.0878L12.0438 10.0864L12.0452 10.0849L12.0495 10.0814L12.0566 10.0743L12.0836 10.0529C12.0902 10.0486 12.0886 10.0491 12.0786 10.0543C12.0608 10.0607 11.9911 10.0828 11.8509 10.0614C11.5564 10.0159 10.9373 9.77398 9.92124 8.7636L9.16843 9.52068ZM8.05843 2.67568C7.33266 1.70798 5.90674 1.55429 5.0408 2.41525L5.7929 3.17233C6.17143 2.79593 6.84313 2.83506 7.20388 3.31677L8.05843 2.67568ZM4.34278 5.0202C4.32855 4.774 4.44168 4.51643 4.67649 4.28304L3.92297 3.52597C3.54088 3.90593 3.2399 4.44385 3.27618 5.07997L4.34278 5.0202ZM14.8166 13.6013C14.6217 13.7963 14.411 13.9059 14.2011 13.9251L14.3 14.9874C14.823 14.9383 15.2507 14.6751 15.5694 14.3584L14.8166 13.6013ZM8.79274 6.46106C9.49361 5.76447 9.54555 4.66372 8.95568 3.87533L8.10113 4.515C8.38788 4.89852 8.34518 5.40158 8.04065 5.70541L8.79274 6.46106ZM15.5666 11.128C16.1479 11.444 16.2383 12.1882 15.8277 12.5967L16.5805 13.353C17.534 12.4045 17.2401 10.8228 16.0753 10.1902L15.5666 11.128ZM13.1182 10.5239C13.3914 10.2521 13.8311 10.1853 14.2068 10.3888L14.7163 9.45166C13.945 9.03185 12.9887 9.14783 12.3654 9.76687L13.1182 10.5239Z" fill="#113627"/>
</g>
</svg>
